# xmcd
#
# Track frame offsets:
#	182
#	19650
#	34537
#	51472
#	67080
#	81845
#	96400
#	113197
#	130900
#	147770
#	163987
#	178387
#	195780
#	214537
#	231705
#
# Disc length: 3300 seconds
#
# Revision: 2
# Processed by: cddbd v1.4PL0 Copyright (c) Steve Scherf et al.
# Submitted via: EasyCDDAExtractor 4.6.0.1
#
DISCID=dd0ce20f
DTITLE=Dyango - Grandes Exitos
DYEAR=1900
DGENRE=Blues
TTITLE0=Sí yo fuera él
TTITLE1=La radio
TTITLE2=Hoy he empezado a quererte otra vez
TTITLE3=Querer y perder
TTITLE4=Sí la viera con mis ojos
TTITLE5=Me gusta
TTITLE6=Bienvenido al club
TTITLE7=Por volverte a ver
TTITLE8=Felicidades
TTITLE9=Hay algo en ella
TTITLE10=Corazón mágico
TTITLE11=Adonde vas amor
TTITLE12=Esa mujer
TTITLE13=Amor de tango
TTITLE14=A usted señora
EXTD=
EXTT0=
EXTT1=
EXTT2=
EXTT3=
EXTT4=
EXTT5=
EXTT6=
EXTT7=
EXTT8=
EXTT9=
EXTT10=
EXTT11=
EXTT12=
EXTT13=
EXTT14=
PLAYORDER=
